<svg xmlns:inkscape="http://www.inkscape.org/namespaces/inkscape" xmlns:sodipodi="http://sodipodi.sourceforge.net/DTD/sodipodi-0.dtd" xmlns="http://www.w3.org/2000/svg" xmlns:svg="http://www.w3.org/2000/svg" version="1.1" x="0px" y="0px" viewBox="4.76 2.91 16.93 20.64"><g><path style="color:#000000;" d="m 7.7617187,2.9101563 c -1.6495375,-1e-7 -3,1.3341429 -3,2.9765624 V 20.572266 c 0,1.642419 1.3504623,2.976562 3,2.976562 H 13.6875 A 0.52916503,0.52916503 0 0 0 14.216797,23.019531 0.52916503,0.52916503 0 0 0 13.6875,22.490234 H 7.7617187 c -1.0865994,0 -1.9414062,-0.848679 -1.9414062,-1.917968 V 5.8867187 C 5.8203125,4.817429 6.675119,3.96875 7.7617187,3.96875 h 9.8769533 c 1.0866,0 1.941406,0.8486764 1.941406,1.9179687 v 8.1367193 a 0.52916503,0.52916503 0 0 0 0.527344,0.529296 0.52916503,0.52916503 0 0 0 0.529297,-0.529296 V 5.8867187 c 0,-1.6424169 -1.34851,-2.9765625 -2.998047,-2.9765624 z" fill="#000000" stroke="none"></path><path style="color:#000000;" d="M 8.7304688,7.1445312 A 0.52916503,0.52916503 0 0 0 8.2011719,7.6738281 0.52916503,0.52916503 0 0 0 8.7304688,8.2011719 H 16.667969 A 0.52916503,0.52916503 0 0 0 17.197266,7.6738281 0.52916503,0.52916503 0 0 0 16.667969,7.1445312 Z" fill="#000000" stroke="none"></path><path style="color:#000000;" d="m 8.7226563,13.494141 a 0.52916503,0.52916503 0 0 0 -0.5292969,0.529297 0.52916503,0.52916503 0 0 0 0.5292969,0.529296 h 5.9628907 a 0.52916503,0.52916503 0 0 0 0.529297,-0.529296 0.52916503,0.52916503 0 0 0 -0.529297,-0.529297 z" fill="#000000" stroke="none"></path><path style="color:#000000;" d="m 8.7304688,10.318359 a 0.52916503,0.52916503 0 0 0 -0.5292969,0.529297 0.52916503,0.52916503 0 0 0 0.5292969,0.529297 h 7.9375002 a 0.52916503,0.52916503 0 0 0 0.529297,-0.529297 0.52916503,0.52916503 0 0 0 -0.529297,-0.529297 z" fill="#000000" stroke="none"></path><path style="color:#000000;" d="m 17.462891,15.082031 c -2.331735,10e-7 -4.234376,1.900688 -4.234375,4.232422 0,2.331734 1.902641,4.234375 4.234375,4.234375 2.331734,1e-6 4.232421,-1.90264 4.232421,-4.234375 10e-7,-2.331735 -1.900687,-4.232422 -4.232421,-4.232422 z m 0,1.056641 c 1.759771,0 3.173828,1.41601 3.173828,3.175781 0,1.759771 -1.414057,3.175782 -3.173828,3.175781 -1.759771,0 -3.175781,-1.41601 -3.175782,-3.175781 0,-1.759771 1.416011,-3.175781 3.175782,-3.175781 z" fill="#000000" stroke="none"></path><path style="color:#000000;" d="m 16.933594,17.726562 a 0.52916503,0.52916503 0 0 0 -0.529297,0.529297 v 1.587891 a 0.52921795,0.52921795 0 0 0 0.529297,0.529297 h 1.58789 a 0.52916503,0.52916503 0 0 0 0.529297,-0.529297 0.52916503,0.52916503 0 0 0 -0.529297,-0.529297 h -1.058593 v -1.058594 a 0.52916503,0.52916503 0 0 0 -0.529297,-0.529297 z" fill="#000000" stroke="none"></path></g></svg>
